<svg width="100" height="100" viewBox="0 0 100 100" fill="none" xmlns="http://www.w3.org/2000/svg">
<path d="M85.3516 0H14.6484C6.5712 0 0 6.5712 0 14.6484V85.3516C0 93.4288 6.5712 100 14.6484 100H85.3516C93.4288 100 100 93.4288 100 85.3516V14.6484C100 6.5712 93.4288 0 85.3516 0ZM94.1406 85.3516C94.1406 90.1978 90.1978 94.1406 85.3516 94.1406H14.6484C9.80225 94.1406 5.85938 90.1978 5.85938 85.3516V14.6484C5.85938 9.80225 9.80225 5.85938 14.6484 5.85938H85.3516C90.1978 5.85938 94.1406 9.80225 94.1406 14.6484V85.3516Z" fill="#AB73FF"/>
<path d="M47.0703 41.2109C47.0703 34.7488 41.8137 29.4922 35.3516 29.4922H17.7734V70.5078H35.3516C41.8137 70.5078 47.0703 65.2512 47.0703 58.7891C47.0703 55.2917 45.5284 52.1492 43.0901 50C45.5284 47.8508 47.0703 44.7083 47.0703 41.2109ZM41.2109 58.7891C41.2109 62.0201 38.5826 64.6484 35.3516 64.6484H23.6328V52.9297H35.3516C38.5826 52.9297 41.2109 55.558 41.2109 58.7891ZM23.6328 47.0703V35.3516H35.3516C38.5826 35.3516 41.2109 37.9799 41.2109 41.2109C41.2109 44.442 38.5826 47.0703 35.3516 47.0703H23.6328Z" fill="#AB73FF"/>
<path d="M67.5781 41.2109C59.5009 41.2109 52.9297 47.7821 52.9297 55.8594C52.9297 63.9366 59.5009 70.5078 67.5781 70.5078C72.7913 70.5078 77.6527 67.7025 80.265 63.1859L75.193 60.2516C73.6244 62.9639 70.7062 64.6484 67.5781 64.6484C63.7581 64.6484 60.5003 62.1994 59.2911 58.7891H82.2266V55.8594C82.2266 47.7821 75.6554 41.2109 67.5781 41.2109ZM59.2911 52.9297C60.5003 49.5193 63.7581 47.0703 67.5781 47.0703C71.3982 47.0703 74.6559 49.5193 75.8652 52.9297H59.2911Z" fill="#AB73FF"/>
<path d="M55.8594 29.4922H79.2969V35.3516H55.8594V29.4922Z" fill="#AB73FF"/>
</svg>
