<svg width="100" height="100" viewBox="0 0 100 100" fill="none" xmlns="http://www.w3.org/2000/svg">
<path d="M50 0C22.5197 0 0 22.715 0 50.1953C0 77.5162 22.3145 100 50 100C77.6512 100 100 77.5497 100 50.1953C100 22.715 77.4803 0 50 0ZM58.7891 93.2617C55.9769 93.8477 52.9884 94.1406 50 94.1406C47.0116 94.1406 44.0231 93.8477 41.2109 93.2617V79.5509C41.2109 76.2695 42.0898 75.0977 43.2617 73.5153C43.8583 72.8333 44.2184 72.2214 46.8941 68.1839L42.3828 67.4805C30.7808 65.7814 26.2108 59.7458 24.3942 55.0583C22.0505 48.7892 23.2811 40.937 27.5002 35.9573C28.1448 35.1952 28.672 33.9058 28.2036 32.5584C27.3239 29.863 27.4414 25.5859 28.0273 23.9449C31.134 24.3889 34.3285 26.6144 36.9926 28.2227C38.2202 28.9391 38.8641 28.7498 39.4531 28.8086C41.5939 28.363 44.9333 27.285 50.0587 27.285C53.2227 27.285 56.5628 27.7534 59.8442 28.6911C60.4309 28.6774 61.3739 29.1763 63.0081 28.2227C65.7928 26.5259 68.8789 24.3767 71.9727 23.9449C72.5586 25.5859 72.6761 29.863 71.7972 32.5584C71.328 33.9058 71.8552 35.1952 72.5006 35.9573C76.7189 40.9378 77.9495 48.7892 75.6058 55.0583C73.7892 59.7458 69.2192 65.7814 57.6172 67.4805L53.1059 68.1839C55.8716 72.3572 56.163 72.8577 56.739 73.5153C57.9102 75.0977 58.7891 76.2695 58.7891 79.5509V93.2617ZM64.6484 91.5627V79.5509C64.6484 76.2108 63.945 73.9845 63.0074 72.3434C71.9139 69.9417 78.2425 64.6675 81.0547 57.1091C84.0431 49.1409 82.6958 39.6484 77.7145 33.0856C78.5942 29.1603 78.5942 22.8905 76.4847 19.9608C75.547 18.6722 74.2577 17.9688 72.6173 17.9688C72.5586 17.9688 72.5586 17.9688 72.5586 17.9688C68.0153 18.2144 64.4394 20.5025 60.6056 22.8317C57.09 21.8941 53.5156 21.4256 49.9413 21.4256C46.3089 21.4256 42.6758 21.9528 39.4539 22.8317C35.4179 20.3979 31.8764 18.2083 27.2072 17.9688C25.7423 17.9688 24.453 18.6722 23.5153 19.9608C21.4066 22.8905 21.4066 29.1603 22.2855 33.0856C17.3042 39.6484 15.9569 49.1989 18.9453 57.1091C21.7575 64.6675 28.0861 69.9417 36.9926 72.3434C36.2656 73.6153 35.6903 75.2563 35.4637 77.4773C33.6647 78.0975 32.1045 78.2997 30.6534 77.8732C29.1229 77.4208 27.9305 76.3992 26.8944 74.6567C24.5674 70.7474 20.6039 67.556 16.0912 67.971L16.6061 73.8075C18.6958 73.616 20.7756 75.827 21.8559 77.6497C23.6382 80.6511 26.0391 82.6195 28.994 83.4923C31.1874 84.1385 33.1924 84.1232 35.3516 83.6624V91.5627C18.3006 85.5858 5.85938 69.297 5.85938 50.1953C5.85938 25.9377 25.7423 5.85938 50 5.85938C74.2577 5.85938 94.1406 25.9377 94.1406 50.1953C94.1406 69.297 81.6994 85.5858 64.6484 91.5627Z" fill="#AB73FF"/>
</svg>
