<svg width="100" height="100" viewBox="0 0 100 100" fill="none" xmlns="http://www.w3.org/2000/svg">
<path d="M85.3516 0H14.6484C6.5712 0 0 6.5712 0 14.6484V85.3516C0 93.4288 6.5712 100 14.6484 100H85.3516C93.4288 100 100 93.4288 100 85.3516V14.6484C100 6.5712 93.4288 0 85.3516 0ZM94.1406 85.3516C94.1406 90.1978 90.1978 94.1406 85.3516 94.1406H14.6484C9.80225 94.1406 5.85938 90.1978 5.85938 85.3516V14.6484C5.85938 9.80225 9.80225 5.85938 14.6484 5.85938H85.3516C90.1978 5.85938 94.1406 9.80225 94.1406 14.6484V85.3516Z" fill="#AB73FF"/>
<path d="M17.7734 82.4219H35.3516V41.0156H17.7734V82.4219ZM23.6328 46.875H29.4922V76.5625H23.6328V46.875Z" fill="#AB73FF"/>
<path d="M64.6652 41.0156C64.6599 41.0156 64.6538 41.0156 64.6484 41.0156C62.6228 41.0156 60.6499 41.3544 58.7891 42.012V41.0156H41.2109V82.4219H58.7891V61.5234C58.7891 59.9083 60.1036 58.5938 61.7188 58.5938C63.3339 58.5938 64.6484 59.9083 64.6484 61.5234V82.4219H82.2266V59.5093C82.2266 50.0275 74.5346 41.0248 64.6652 41.0156ZM76.3672 76.5625H70.5078V61.5234C70.5078 56.6772 66.5649 52.7344 61.7188 52.7344C56.8726 52.7344 52.9305 56.6772 52.9297 61.5227V76.5625H47.0703V46.875H52.9297V52.7382L57.6187 49.2165C59.6581 47.6845 62.0888 46.875 64.6484 46.875H64.6599C70.8961 46.8811 76.3672 52.7847 76.3672 59.5093V76.5625Z" fill="#AB73FF"/>
<path d="M17.7734 35.1562H35.3516V17.5781H17.7734V35.1562ZM23.6328 23.4375H29.4922V29.2969H23.6328V23.4375Z" fill="#AB73FF"/>
</svg>
