<svg width="50" height="50" viewBox="0 0 50 50" fill="none" xmlns="http://www.w3.org/2000/svg">
<path d="M42.6758 0H7.32422C3.2856 0 0 3.2856 0 7.32422V42.6758C0 46.7144 3.2856 50 7.32422 50H42.6758C46.7144 50 50 46.7144 50 42.6758V7.32422C50 3.2856 46.7144 0 42.6758 0ZM47.0703 42.6758C47.0703 45.0989 45.0989 47.0703 42.6758 47.0703H7.32422C4.90112 47.0703 2.92969 45.0989 2.92969 42.6758V7.32422C2.92969 4.90112 4.90112 2.92969 7.32422 2.92969H42.6758C45.0989 2.92969 47.0703 4.90112 47.0703 7.32422V42.6758Z" fill="white"/>
<path d="M23.5352 20.6055C23.5352 17.3744 20.9068 14.7461 17.6758 14.7461H8.88672V35.2539H17.6758C20.9068 35.2539 23.5352 32.6256 23.5352 29.3945C23.5352 27.6459 22.7642 26.0746 21.545 25C22.7642 23.9254 23.5352 22.3541 23.5352 20.6055ZM20.6055 29.3945C20.6055 31.0101 19.2913 32.3242 17.6758 32.3242H11.8164V26.4648H17.6758C19.2913 26.4648 20.6055 27.779 20.6055 29.3945ZM11.8164 23.5352V17.6758H17.6758C19.2913 17.6758 20.6055 18.9899 20.6055 20.6055C20.6055 22.221 19.2913 23.5352 17.6758 23.5352H11.8164Z" fill="white"/>
<path d="M33.7891 20.6055C29.7504 20.6055 26.4648 23.8911 26.4648 27.9297C26.4648 31.9683 29.7504 35.2539 33.7891 35.2539C36.3956 35.2539 38.8264 33.8512 40.1325 31.5929L37.5965 30.1258C36.8122 31.4819 35.3531 32.3242 33.7891 32.3242C31.879 32.3242 30.2502 31.0997 29.6455 29.3945H41.1133V27.9297C41.1133 23.8911 37.8277 20.6055 33.7891 20.6055ZM29.6455 26.4648C30.2502 24.7597 31.879 23.5352 33.7891 23.5352C35.6991 23.5352 37.328 24.7597 37.9326 26.4648H29.6455Z" fill="white"/>
<path d="M27.9297 14.7461H39.6484V17.6758H27.9297V14.7461Z" fill="white"/>
</svg>
