<svg width="50" height="50" viewBox="0 0 50 50" fill="none" xmlns="http://www.w3.org/2000/svg">
<path d="M42.6758 0H7.32422C3.2856 0 0 3.2856 0 7.32422V42.6758C0 46.7144 3.2856 50 7.32422 50H42.6758C46.7144 50 50 46.7144 50 42.6758V7.32422C50 3.2856 46.7144 0 42.6758 0ZM47.0703 42.6758C47.0703 45.0989 45.0989 47.0703 42.6758 47.0703H7.32422C4.90112 47.0703 2.92969 45.0989 2.92969 42.6758V7.32422C2.92969 4.90112 4.90112 2.92969 7.32422 2.92969H42.6758C45.0989 2.92969 47.0703 4.90112 47.0703 7.32422V42.6758Z" fill="white"/>
<path d="M8.88672 41.2109H17.6758V20.5078H8.88672V41.2109ZM11.8164 23.4375H14.7461V38.2812H11.8164V23.4375Z" fill="white"/>
<path d="M32.3326 20.5078C32.3299 20.5078 32.3269 20.5078 32.3242 20.5078C31.3114 20.5078 30.3249 20.6772 29.3945 21.006V20.5078H20.6055V41.2109H29.3945V30.7617C29.3945 29.9541 30.0518 29.2969 30.8594 29.2969C31.6669 29.2969 32.3242 29.9541 32.3242 30.7617V41.2109H41.1133V29.7546C41.1133 25.0137 37.2673 20.5124 32.3326 20.5078ZM38.1836 38.2812H35.2539V30.7617C35.2539 28.3386 33.2825 26.3672 30.8594 26.3672C28.4363 26.3672 26.4652 28.3386 26.4648 30.7613V38.2812H23.5352V23.4375H26.4648V26.3691L28.8094 24.6082C29.829 23.8422 31.0444 23.4375 32.3242 23.4375H32.3299C35.4481 23.4406 38.1836 26.3924 38.1836 29.7546V38.2812Z" fill="white"/>
<path d="M8.88672 17.5781H17.6758V8.78906H8.88672V17.5781ZM11.8164 11.7188H14.7461V14.6484H11.8164V11.7188Z" fill="white"/>
</svg>
