<svg width="107" height="97" viewBox="0 0 107 97" fill="none" xmlns="http://www.w3.org/2000/svg">
<path d="M93.6649 63.8107C93.4505 63.6099 93.1595 63.4971 92.8561 63.4971H88.9336V28.8492C88.9336 24.5212 85.1722 21 80.5488 21H58.594H49.406H27.4512C22.8278 21 19.0663 24.5212 19.0663 28.8492V63.4971H15.1439C14.5121 63.4971 14 63.9765 14 64.568C14 70.9802 19.5728 76.197 26.4226 76.197H81.5774C88.4272 76.197 94 70.9802 94 64.5679C94 64.2839 93.8795 64.0115 93.6649 63.8107ZM21.3542 28.8492C21.3542 25.7021 24.0893 23.1417 27.4512 23.1417H49.406H58.594H80.5488C83.9107 23.1417 86.6458 25.7021 86.6458 28.8492V63.4971L21.3542 63.4971V28.8492ZM81.5774 74.0553H26.4226C21.2211 74.0553 16.9221 70.3678 16.352 65.6388H91.648C91.0779 70.3677 86.7789 74.0553 81.5774 74.0553Z" fill="white"/>
<path d="M40.5509 38.8118C40.0644 39.1732 39.7197 39.6616 39.517 40.2765C39.4021 40.6317 39.3447 40.9707 39.3447 41.2941V43.8429C39.3447 44.7433 39.1042 45.4122 38.6234 45.8497C38.3524 46.1034 37.8884 46.3347 37.2316 46.544V47.6948C37.814 47.847 38.2611 48.053 38.5727 48.313C39.0873 48.7378 39.3447 49.3496 39.3447 50.1485V53.1254C39.3447 54.1144 39.708 54.8673 40.4344 55.3841C41.1609 55.9008 42.0071 56.1719 42.9735 56.1973L43.6931 56.2163V54.6946C43.1883 54.5552 42.8349 54.3938 42.6331 54.2101C42.2695 53.8998 42.0879 53.3932 42.0879 52.6903V50.2871C42.0743 49.4704 41.9101 48.8309 41.5952 48.3686C41.2802 47.9063 40.6656 47.501 39.7511 47.1527C40.7603 46.7158 41.4377 46.1459 41.7831 45.4429C41.9863 45.0249 42.0879 44.4614 42.0879 43.7522V41.5483C42.0879 40.8202 42.2427 40.3103 42.5522 40.0191C42.7542 39.8292 43.1343 39.6773 43.6931 39.5631V38.0415C43.0105 38.0479 42.4868 38.0859 42.1221 38.1556C41.5206 38.2635 40.9968 38.4822 40.5509 38.8118Z" fill="white"/>
<path d="M67.4971 43.8429V41.2941C67.4971 40.9327 67.4089 40.5111 67.2324 40.0292C67.0558 39.5475 66.74 39.1416 66.2853 38.8118C65.8303 38.4822 65.3009 38.2635 64.6967 38.1556C64.33 38.0859 63.8072 38.0479 63.1285 38.0415V39.5631C63.7177 39.6773 64.1325 39.861 64.373 40.1142C64.6134 40.3674 64.7337 40.8455 64.7337 41.5483V43.7522C64.7337 44.5817 64.9018 45.2546 65.2383 45.7706C65.5749 46.2868 66.1884 46.7474 67.079 47.1527C66.2632 47.4757 65.6684 47.8541 65.2945 48.2878C64.9205 48.7217 64.7337 49.3881 64.7337 50.2871V52.6903C64.72 53.3805 64.5407 53.884 64.1952 54.2006C63.992 54.3906 63.6364 54.5552 63.1285 54.6946V56.2163L63.8515 56.1973C64.8563 56.1719 65.715 55.8944 66.4278 55.3651C67.1406 54.8356 67.4971 54.089 67.4971 53.1254V50.1485C67.4971 49.337 67.7646 48.7157 68.2997 48.2845C68.5977 48.0436 69.0346 47.847 69.6103 47.6948V46.544C68.9127 46.3285 68.4283 46.0938 68.1575 45.8402C67.7171 45.4155 67.4971 44.7498 67.4971 43.8429Z" fill="white"/>
<path d="M57.6028 40.6919H55.8064L54.8275 44.1097H53.3484L54.335 40.6919H52.5377L51.5512 44.1097H49.7115L49.3075 45.5225H51.1434L50.4279 48.0013H48.5986L48.1946 49.4141H50.0201L49.0433 52.7981H50.8405L51.8172 49.4141H53.3082L52.339 52.7981H54.1353L55.1046 49.4141H56.9439L57.3479 48.0013H55.5093L56.2192 45.5225H58.0566L58.4609 44.1097H56.6238L57.6028 40.6919ZM53.7128 48.0013H52.225L52.9406 45.5225H54.4228L53.7128 48.0013Z" fill="white"/>
</svg>
