<svg width="107" height="97" viewBox="0 0 107 97" fill="none" xmlns="http://www.w3.org/2000/svg">
<path d="M59.2736 51.6963H58.0749C57.8501 51.6963 57.5146 51.4698 57.4449 51.2712L56.0934 48.2185L56.054 48.139C55.9522 47.9542 56.0161 47.5763 56.1738 47.4296L57.0224 46.6401C57.4873 46.2076 57.7435 45.6311 57.7435 45.017C57.7435 44.403 57.4873 43.8265 57.0224 43.394L52.4764 39.1646C52.0114 38.732 51.3917 38.4938 50.7316 38.4938C50.0715 38.4938 49.4519 38.732 48.9872 39.1645L48.1383 39.9541C47.9806 40.1007 47.5747 40.1603 47.3761 40.0656L44.0912 38.7997L44.0093 38.7716C43.7956 38.7067 43.5523 38.3945 43.5523 38.1855V37.0702C43.5523 35.8046 42.4456 34.7749 41.085 34.7749H34.6558C33.2953 34.7749 32.1886 35.8046 32.1886 37.0702V38.1855C32.1886 38.3945 31.9452 38.7067 31.7316 38.7716L28.4503 40.0288L28.3647 40.0656C28.1663 40.1604 27.7601 40.1009 27.6024 39.954L26.7538 39.1647C26.2889 38.732 25.6694 38.4938 25.0092 38.4938C24.3492 38.4938 23.7295 38.732 23.2645 39.1646L18.7184 43.394C18.2536 43.8265 17.9974 44.403 17.9974 45.017C17.9974 45.6311 18.2536 46.2076 18.7184 46.6401L19.567 47.4296C19.7247 47.5763 19.7887 47.9542 19.6868 48.139L18.3263 51.1949L18.296 51.2712C18.2263 51.4698 17.8907 51.6963 17.666 51.6963H16.4672C15.1067 51.6963 14 52.726 14 53.9916V59.973C14 61.2386 15.1067 62.2683 16.4672 62.2683H17.666C17.8907 62.2683 18.2263 62.4948 18.296 62.6934L19.6475 65.7461L19.6868 65.8256C19.7887 66.0104 19.7247 66.3883 19.567 66.535L18.7184 67.3245C18.2536 67.757 17.9974 68.3335 17.9974 68.9476C17.9974 69.5616 18.2536 70.1381 18.7184 70.5706L23.2645 74.8C23.7295 75.2326 24.3492 75.4708 25.0092 75.4708C25.6694 75.4708 26.2889 75.2326 26.7536 74.8001L27.6025 74.0105C27.7603 73.8638 28.1662 73.8044 28.3647 73.899L31.6497 75.1649L31.7316 75.193C31.9452 75.2579 32.1886 75.5701 32.1886 75.7791V76.8944C32.1886 78.16 33.2953 79.1897 34.6558 79.1897H41.085C42.4456 79.1897 43.5523 78.16 43.5523 76.8944V75.7791C43.5523 75.5701 43.7956 75.2579 44.0093 75.193L47.2905 73.9358L47.3761 73.899C47.5747 73.8045 47.9809 73.8638 48.1385 74.0106L48.9871 74.7999C49.4519 75.2326 50.0715 75.4708 50.7316 75.4708C51.3917 75.4708 52.0114 75.2326 52.4764 74.8L57.0224 70.5706C57.4873 70.1381 57.7435 69.5616 57.7435 68.9476C57.7435 68.3335 57.4873 67.757 57.0224 67.3245L56.1738 66.535C56.0161 66.3883 55.9522 66.0104 56.054 65.8256L57.4145 62.7697L57.4449 62.6934C57.5146 62.4948 57.8501 62.2683 58.0749 62.2683H59.2736C60.6341 62.2683 61.7408 61.2386 61.7408 59.973V53.9916C61.7408 52.726 60.6341 51.6963 59.2736 51.6963ZM59.4381 59.973C59.4381 60.0545 59.3612 60.126 59.2736 60.126H58.0749C56.8653 60.126 55.6696 60.9216 55.2719 61.984L53.9803 64.8938C53.4515 65.9061 53.6899 67.2538 54.5454 68.0498L55.394 68.8393C55.456 68.897 55.456 68.9981 55.394 69.0558L50.8479 73.2852C50.8095 73.321 50.7634 73.3285 50.7316 73.3285C50.6998 73.3285 50.6539 73.321 50.6153 73.2851L49.7668 72.4957C48.9111 71.6997 47.4621 71.4778 46.3745 71.9699L43.2466 73.1715C42.1047 73.5415 41.2495 74.6538 41.2495 75.7791V76.8944C41.2495 76.9759 41.1726 77.0474 41.085 77.0474H34.6558C34.5683 77.0474 34.4913 76.9759 34.4913 76.8944V75.7791C34.4913 74.6538 33.6361 73.5415 32.4942 73.1715L29.3664 71.97C28.2788 71.4778 26.8299 71.6995 25.9742 72.4956L25.1253 73.2853C25.0869 73.321 25.041 73.3285 25.0092 73.3285C24.9774 73.3285 24.9313 73.321 24.8929 73.2852L20.3468 69.0558C20.2848 68.9981 20.2848 68.897 20.3468 68.8393L21.1954 68.0498C22.0509 67.2538 22.2893 65.9061 21.7605 64.8938L20.4689 61.984C20.0712 60.9216 18.8755 60.126 17.666 60.126H16.4672C16.3797 60.126 16.3027 60.0545 16.3027 59.973V53.9916C16.3027 53.9101 16.3797 53.8386 16.4672 53.8386H17.666C18.8755 53.8386 20.0712 53.043 20.4689 51.9806L21.7605 49.0708C22.2893 48.0585 22.0509 46.7108 21.1954 45.9148L20.3468 45.1253C20.2848 45.0676 20.2848 44.9665 20.3468 44.9088L24.8929 40.6794C24.9313 40.6436 24.9774 40.6361 25.0092 40.6361C25.041 40.6361 25.0869 40.6436 25.1255 40.6795L25.9741 41.4689C26.8297 42.265 28.2786 42.4868 29.3664 41.9947L32.4942 40.7931C33.6361 40.4231 34.4913 39.3108 34.4913 38.1855V37.0702C34.4913 36.9887 34.5683 36.9172 34.6558 36.9172H41.085C41.1726 36.9172 41.2495 36.9887 41.2495 37.0702V38.1855C41.2495 39.3108 42.1047 40.4231 43.2466 40.7931L46.3745 41.9946C47.4621 42.4868 48.9109 42.2652 49.7666 41.469L50.6155 40.6793C50.6539 40.6436 50.6998 40.6361 50.7316 40.6361C50.7634 40.6361 50.8095 40.6436 50.8479 40.6794L55.394 44.9088C55.456 44.9665 55.456 45.0676 55.394 45.1253L54.5454 45.9148C53.6899 46.7108 53.4515 48.0585 53.9803 49.0708L55.2719 51.9806C55.6696 53.043 56.8653 53.8386 58.0749 53.8386H59.2736C59.3612 53.8386 59.4381 53.9101 59.4381 53.9916V59.973Z" fill="white"/>
<path d="M37.8704 48.6436C32.9281 48.6436 28.9073 52.3843 28.9073 56.9823C28.9073 61.5803 32.9281 65.321 37.8704 65.321C42.8128 65.321 46.8336 61.5803 46.8336 56.9823C46.8336 52.3843 42.8128 48.6436 37.8704 48.6436ZM37.8704 63.1787C34.1978 63.1787 31.21 60.399 31.21 56.9823C31.21 53.5656 34.1978 50.7859 37.8704 50.7859C41.543 50.7859 44.5308 53.5656 44.5308 56.9823C44.5308 60.399 41.543 63.1787 37.8704 63.1787Z" fill="white"/>
<path d="M37.8705 42.8169C29.475 42.8169 22.6447 49.1714 22.6447 56.9822C22.6447 64.7929 29.475 71.1475 37.8705 71.1475C46.266 71.1475 53.0963 64.7929 53.0963 56.9822C53.0963 49.1714 46.266 42.8169 37.8705 42.8169ZM37.8705 69.0051C30.7447 69.0051 24.9474 63.6117 24.9474 56.9822C24.9474 50.3527 30.7447 44.9592 37.8705 44.9592C44.9962 44.9592 50.7936 50.3527 50.7936 56.9822C50.7936 63.6117 44.9962 69.0051 37.8705 69.0051Z" fill="white"/>
<path d="M91.5327 30.312H91.3774C91.1527 30.312 90.8171 30.0855 90.7474 29.8869L90.0312 28.2598L89.9912 28.1792C89.8893 27.9944 89.9533 27.6166 90.1112 27.4696L90.2215 27.367C91.1833 26.4721 91.1833 25.0158 90.2215 24.1209L87.4206 21.5152C86.9556 21.0825 86.3361 20.8443 85.6761 20.8443C85.0159 20.8443 84.3963 21.0825 83.9312 21.5155L83.8208 21.6181C83.6631 21.7647 83.2569 21.8243 83.0583 21.7295L81.3035 21.0536L81.2228 21.026C81.0092 20.9611 80.7658 20.6489 80.7658 20.4399V20.2953C80.7658 19.0297 79.6591 18 78.2986 18H74.3375C72.977 18 71.8703 19.0297 71.8703 20.2953V20.4399C71.8703 20.6489 71.6269 20.9611 71.4133 21.026L69.6646 21.6923L69.5778 21.7295C69.379 21.824 68.9731 21.7648 68.8155 21.6183L68.7048 21.5152C68.2398 21.0825 67.6203 20.8443 66.9601 20.8443C66.3001 20.8443 65.6805 21.0825 65.2155 21.5152L62.4146 24.1209C61.4528 25.0158 61.4528 26.4721 62.4145 27.3667L62.5252 27.4699C62.6829 27.6166 62.7468 27.9944 62.645 28.1792L61.9185 29.8118L61.8887 29.8869C61.819 30.0855 61.4835 30.312 61.2588 30.312H61.1034C59.7429 30.312 58.6362 31.3417 58.6362 32.6073V36.2924C58.6362 37.558 59.7429 38.5877 61.1034 38.5877H61.2588C61.4835 38.5877 61.819 38.8142 61.8887 39.0128L62.605 40.6398L62.645 40.7205C62.7468 40.9053 62.6829 41.2831 62.525 41.4301L62.4146 41.5327C61.4528 42.4276 61.4528 43.8838 62.4146 44.7787L65.2155 47.3845C65.6805 47.8171 66.3001 48.0553 66.9601 48.0553C67.6203 48.0553 68.2398 47.8171 68.705 47.3842L68.8153 47.2816C68.9731 47.1349 69.3793 47.0755 69.5778 47.1701L71.3327 47.846L71.4133 47.8737C71.6269 47.9386 71.8703 48.2508 71.8703 48.4598V48.6043C71.8703 49.87 72.977 50.8997 74.3375 50.8997H78.2986C79.6591 50.8997 80.7658 49.87 80.7658 48.6043V48.4598C80.7658 48.2508 81.0092 47.9386 81.2228 47.8737L82.9716 47.2073L83.0583 47.1701C83.2572 47.0756 83.6629 47.1349 83.8207 47.2813L83.9313 47.3845C84.3963 47.8171 85.0159 48.0553 85.6761 48.0553C86.3361 48.0553 86.9556 47.8171 87.4206 47.3845L90.2215 44.7787C91.1833 43.8838 91.1833 42.4276 90.2217 41.533L90.111 41.4298C89.9533 41.2831 89.8893 40.9053 89.9912 40.7205L90.7177 39.0879L90.7474 39.0128C90.8171 38.8142 91.1527 38.5877 91.3774 38.5877H91.5327C92.8932 38.5877 93.9999 37.558 93.9999 36.2924V32.6073C93.9999 31.3417 92.8932 30.312 91.5327 30.312ZM91.6972 36.2924C91.6972 36.3739 91.6202 36.4454 91.5327 36.4454H91.3774C90.1675 36.4454 88.9717 37.2414 88.5741 38.3041L87.9171 39.7894C87.3887 40.8015 87.6272 42.1488 88.4824 42.9443L88.5931 43.0475C88.6551 43.1051 88.6551 43.2063 88.5931 43.2639L85.7922 45.8697C85.7302 45.9274 85.6216 45.9272 85.5599 45.87L85.4493 45.7668C84.5936 44.9709 83.1455 44.7492 82.0575 45.2407L80.4611 45.852C79.3188 46.2217 78.4631 47.3342 78.4631 48.4598V48.6043C78.4631 48.6859 78.3861 48.7574 78.2986 48.7574H74.3375C74.25 48.7574 74.1731 48.6859 74.1731 48.6043V48.4598C74.1731 47.3342 73.3174 46.2217 72.175 45.852L70.5787 45.2407C69.4909 44.7492 68.0424 44.9709 67.1867 45.7671L67.0764 45.8697C67.0147 45.9273 66.9056 45.9274 66.8439 45.8697L64.0431 43.2639C63.9811 43.2063 63.9811 43.1051 64.0432 43.0472L64.1536 42.9446C65.0089 42.1488 65.2475 40.8015 64.719 39.7894L64.062 38.3041C63.6645 37.2414 62.4686 36.4454 61.2588 36.4454H61.1034C61.0159 36.4454 60.939 36.3739 60.939 36.2924V32.6073C60.939 32.5258 61.0159 32.4543 61.1034 32.4543H61.2588C62.4686 32.4543 63.6645 31.6583 64.062 30.5956L64.719 29.1103C65.2475 28.0982 65.0089 26.7509 64.1538 25.9553L64.0431 25.8521C63.9811 25.7945 63.9811 25.6934 64.0431 25.6358L66.8439 23.03C66.9059 22.9723 67.0145 22.9725 67.0762 23.0297L67.1869 23.1329C68.0425 23.9289 69.4909 24.1507 70.5787 23.659L72.175 23.0477C73.3174 22.6779 74.1731 21.5654 74.1731 20.4399V20.2953C74.1731 20.2138 74.25 20.1423 74.3375 20.1423H78.2986C78.3861 20.1423 78.4631 20.2138 78.4631 20.2953V20.4399C78.4631 21.5654 79.3188 22.6779 80.4611 23.0477L82.0575 23.659C83.1455 24.1507 84.5939 23.9288 85.4494 23.1326L85.5598 23.03C85.6213 22.9724 85.7304 22.9722 85.7922 23.03L88.5931 25.6358C88.6551 25.6934 88.6551 25.7945 88.5929 25.8524L88.4825 25.955C87.6272 26.7509 87.3887 28.0982 87.9171 29.1103L88.5741 30.5956C88.9717 31.6583 90.1675 32.4543 91.3774 32.4543H91.5327C91.6202 32.4543 91.6972 32.5258 91.6972 32.6073V36.2924Z" fill="white"/>
<path d="M76.318 28.0906C72.5491 28.0906 69.4829 30.9432 69.4829 34.4496C69.4829 37.9559 72.5491 40.8086 76.318 40.8086C80.0869 40.8086 83.1531 37.9559 83.1531 34.4496C83.1531 30.9432 80.0869 28.0906 76.318 28.0906ZM76.318 38.6663C73.8188 38.6663 71.7856 36.7747 71.7856 34.4496C71.7856 32.1245 73.8188 30.2329 76.318 30.2329C78.8172 30.2329 80.8504 32.1245 80.8504 34.4496C80.8504 36.7747 78.8172 38.6663 76.318 38.6663Z" fill="white"/>
<path d="M76.3181 23.8516C70.0364 23.8516 64.9261 28.6059 64.9261 34.4498C64.9261 40.2937 70.0364 45.0481 76.3181 45.0481C82.5997 45.0481 87.71 40.2937 87.71 34.4498C87.71 28.6059 82.5997 23.8516 76.3181 23.8516ZM76.3181 42.9058C71.3062 42.9058 67.2289 39.1124 67.2289 34.4498C67.2289 29.7872 71.3062 25.9939 76.3181 25.9939C81.3299 25.9939 85.4073 29.7872 85.4073 34.4498C85.4073 39.1124 81.3299 42.9058 76.3181 42.9058Z" fill="white"/>
</svg>
