<svg width="107" height="97" viewBox="0 0 107 97" fill="none" xmlns="http://www.w3.org/2000/svg">
<path d="M51.6175 22.9273C51.6816 22.9605 51.7818 23.0878 51.7893 23.1634C51.8407 23.6824 51.8003 24.4552 51.7127 24.7803C51.2824 25.1312 51.0175 25.65 50.9749 26.2413C50.9344 26.8046 51.0988 27.3974 51.4379 27.9099L52.5429 29.5804C53.3308 30.7715 54.7825 31.2006 55.8533 30.563C55.9232 30.5428 56.0792 30.5656 56.1304 30.6057C56.5566 30.9456 57.1059 31.5244 57.2876 31.8139C57.1947 32.9013 58.075 33.922 59.4082 34.2088L61.4245 34.6427C61.6502 34.6913 61.8786 34.7153 62.104 34.7153C62.4963 34.7153 62.8794 34.6425 63.2231 34.4991C63.8796 34.2252 64.341 33.7163 64.4915 33.1009C64.5262 33.0396 64.6593 32.9438 64.7383 32.9366C65.2801 32.8876 66.0871 32.9261 66.4277 33.0095C67.1651 33.8448 68.5448 33.9722 69.7012 33.2727L71.4478 32.2159C72.693 31.4623 73.1422 30.0741 72.4752 29.0498C72.4534 28.9834 72.4778 28.8339 72.5198 28.7848C72.8752 28.377 73.4804 27.8516 73.7831 27.678C74.9197 27.7669 75.9873 26.9251 76.2872 25.6499L76.7408 23.7215C76.8802 23.1297 76.8267 22.5189 76.5907 22.0013C76.3044 21.3734 75.7722 20.9321 75.1287 20.7882C75.0647 20.755 74.9645 20.6277 74.957 20.5521C74.9056 20.0331 74.946 19.2603 75.0336 18.9352C75.4639 18.5843 75.7288 18.0655 75.7714 17.4742C75.8119 16.9109 75.6475 16.3181 75.3084 15.8056L74.2034 14.1351C73.4156 12.944 71.9636 12.5144 70.8931 13.1523C70.8234 13.1737 70.6674 13.15 70.6159 13.1098C70.1897 12.7699 69.6404 12.1911 69.4587 11.9016C69.5514 10.8144 68.6713 9.79353 67.3381 9.50669L65.3218 9.07281C64.7031 8.93941 64.0643 8.9905 63.5232 9.21639C62.8667 9.49026 62.4053 9.99921 62.2548 10.6146C62.2201 10.6759 62.087 10.7717 62.008 10.7789C61.4655 10.8275 60.6573 10.7893 60.3174 10.7056C59.9505 10.2941 59.408 10.0408 58.7898 10C58.2016 9.96225 57.581 10.1186 57.0451 10.4428L55.2985 11.4996C54.0535 12.253 53.6041 13.6411 54.2709 14.6659C54.2929 14.7323 54.2684 14.8818 54.2264 14.9307C53.871 15.3383 53.2659 15.8637 52.9632 16.0375C51.8269 15.9482 50.759 16.7904 50.4591 18.0656L50.0054 19.994C49.8661 20.5858 49.9196 21.1966 50.1556 21.7142C50.4419 22.3421 50.9741 22.7834 51.6175 22.9273ZM52.4079 20.511L52.8615 18.5826C52.8797 18.5051 52.9081 18.4471 52.9337 18.4077C54.1804 18.4826 55.5623 17.0763 56.1182 16.4384C56.7938 15.663 56.9305 14.484 56.4717 13.6082C56.5021 13.5729 56.5485 13.5302 56.6151 13.49L58.3616 12.4333C58.4316 12.3909 58.4943 12.369 58.5414 12.3584C59.3757 13.2713 61.3801 13.2013 62.2402 13.1236C63.2966 13.028 64.2687 12.2852 64.5923 11.3572C64.6402 11.3524 64.7041 11.3539 64.7813 11.3705L66.7975 11.8044C66.8786 11.8218 66.9393 11.8489 66.9805 11.8734C66.9011 13.0717 68.3725 14.3874 69.039 14.9187C69.8494 15.5652 71.0819 15.6963 71.9989 15.2573C72.0356 15.2864 72.0803 15.3306 72.1224 15.3943L73.2272 17.0646C73.2715 17.1317 73.2944 17.1916 73.3055 17.2366C72.351 18.0346 72.424 19.9518 72.5054 20.7742C72.6054 21.7846 73.382 22.7143 74.3523 23.0238C74.357 23.0693 74.3558 23.1307 74.3384 23.2045L73.8848 25.1329C73.8666 25.2104 73.8382 25.2684 73.8126 25.3078C72.5564 25.2339 71.184 26.6394 70.6283 27.2768C69.9525 28.0522 69.8156 29.231 70.2744 30.1074C70.2442 30.1426 70.1978 30.1853 70.1312 30.2256L68.3847 31.2822C68.3146 31.3246 68.252 31.3466 68.2047 31.3572C67.3704 30.4442 65.366 30.514 64.5061 30.5919C63.4497 30.6875 62.4776 31.4304 62.154 32.3583C62.1066 32.3632 62.0422 32.3618 61.965 32.345L59.9488 31.9111C59.8677 31.8937 59.807 31.8666 59.7658 31.8421C59.8452 30.6438 58.3738 29.3281 57.7071 28.7966C56.8965 28.1505 55.6637 28.0194 54.7474 28.4582C54.7107 28.4291 54.666 28.3849 54.6239 28.3212L53.5191 26.6509C53.4748 26.5838 53.4519 26.5239 53.4408 26.4789C54.3953 25.6809 54.3223 23.7637 54.2409 22.9413C54.1409 21.9309 53.3641 21.0012 52.394 20.6917C52.3893 20.6462 52.3905 20.5848 52.4079 20.511Z" fill="white"/>
<path d="M61.8695 28.2495C62.3737 28.358 62.8773 28.41 63.3739 28.41C66.5057 28.41 69.3402 26.338 70.0559 23.2963V23.2962C70.8849 19.7722 68.5617 16.2598 64.8768 15.4668C61.1929 14.673 57.5197 16.8959 56.6904 20.4201C55.8614 23.9441 58.1847 27.4565 61.8695 28.2495ZM59.0928 20.9371C59.5513 18.9885 61.3666 17.6616 63.3727 17.6616C63.6907 17.6616 64.0135 17.695 64.3362 17.7645C66.6964 18.2724 68.1845 20.5221 67.6535 22.7792C67.1224 25.0366 64.7689 26.4594 62.4101 25.9518C60.05 25.4438 58.5619 23.1942 59.0928 20.9371Z" fill="white"/>
<path d="M87.8216 55.4056C87.8229 55.3266 87.827 55.2476 87.8334 55.182C88.3391 54.5773 88.2809 53.5914 87.636 52.6162C86.974 51.6158 86.0363 51.1436 85.2343 51.3626C85.1745 51.3033 85.1168 51.2425 85.0716 51.1904C85.017 50.7534 84.7447 50.3401 84.2918 50.0301C83.952 49.7974 83.5183 49.6199 83.038 49.5165C81.8292 49.256 80.816 49.5579 80.4111 50.2566C80.3271 50.2553 80.2431 50.2512 80.1739 50.245C79.8119 49.9711 79.3122 49.8622 78.7614 49.9492C78.3489 50.0145 77.9109 50.182 77.4947 50.4339C77.0783 50.6859 76.7324 50.9926 76.4941 51.321C76.1602 51.781 76.0546 52.2844 76.1848 52.7298C76.1224 52.7876 76.0582 52.8431 76.0036 52.8867C75.5468 52.9389 75.1146 53.1993 74.7905 53.6325C74.5473 53.9573 74.3616 54.3721 74.2534 54.8316C73.9811 55.9884 74.2965 56.9568 75.0274 57.344C75.026 57.4245 75.0217 57.5047 75.0152 57.5709C74.7288 57.9172 74.6146 58.3948 74.7058 58.922C74.7742 59.3163 74.9494 59.7352 75.2127 60.1333C75.4762 60.5315 75.7967 60.8624 76.1401 61.0902C76.6213 61.4094 77.1474 61.5101 77.6132 61.3863C77.6735 61.4457 77.7316 61.507 77.7769 61.5593C77.8317 61.9963 78.104 62.4096 78.557 62.7196C78.8966 62.9522 79.3303 63.1298 79.8107 63.2333C80.101 63.2959 80.3802 63.326 80.6421 63.326C81.4714 63.326 82.13 63.0244 82.4377 62.4931C82.5205 62.4944 82.6031 62.4983 82.6716 62.5046C83.3039 62.988 84.3347 62.9324 85.3544 62.3156C86.4005 61.6825 86.8935 60.7858 86.6653 60.0188C86.7262 59.9624 86.7889 59.908 86.8424 59.8653C87.6455 59.7776 88.3312 59.0416 88.5954 57.9182C88.8677 56.7613 88.5521 55.7927 87.8216 55.4056ZM86.193 57.4012C86.1772 57.4679 86.159 57.5257 86.1409 57.5742C85.5287 57.75 84.9778 58.2497 84.5792 58.7074C84.2062 59.1351 84.0587 59.7142 84.1514 60.2499C84.1181 60.2741 84.0803 60.2995 84.0377 60.3253C83.9778 60.3616 83.9226 60.3899 83.8744 60.4119C83.4752 60.2033 82.8645 60.0708 81.9328 60.1558C81.3521 60.2083 80.819 60.5187 80.4884 60.9593C80.4468 60.9539 80.4009 60.9463 80.3515 60.9356C80.2816 60.9205 80.2211 60.9031 80.1704 60.8857C79.9866 60.3002 79.4641 59.7735 78.9855 59.3922C78.5386 59.0357 77.9333 58.8949 77.3729 58.9831C77.3475 58.9514 77.3209 58.9151 77.2939 58.8742C77.2551 58.8157 77.225 58.7618 77.202 58.715C77.527 58.1351 77.5201 57.3555 77.4712 56.8612C77.4162 56.3058 77.0917 55.796 76.631 55.4797C76.6367 55.44 76.6446 55.3961 76.6558 55.3488C76.6716 55.2819 76.6898 55.2239 76.708 55.1755C77.3199 54.9995 77.8709 54.4999 78.2699 54.0421C78.6425 53.6144 78.7899 53.0357 78.6973 52.4999C78.7306 52.4756 78.7684 52.4502 78.8112 52.4244C78.8723 52.3872 78.9287 52.3585 78.9776 52.3365C79.584 52.6473 80.3985 52.6411 80.9159 52.5939C81.4967 52.5413 82.0295 52.231 82.3602 51.7906C82.4019 51.796 82.448 51.8035 82.4976 51.8142C82.5674 51.8293 82.6278 51.8467 82.6783 51.864C82.8621 52.4497 83.3848 52.9765 83.8636 53.358C84.3109 53.7148 84.9169 53.8554 85.4762 53.7667C85.5014 53.7984 85.528 53.8346 85.555 53.8753C85.593 53.9327 85.6227 53.9857 85.6455 54.0319C85.4277 54.4135 85.2898 54.9967 85.3776 55.8886C85.4325 56.4439 85.757 56.9535 86.2177 57.2699C86.212 57.3097 86.2041 57.3537 86.193 57.4012Z" fill="white"/>
<path d="M82.108 53.4691C81.2968 53.2948 80.4626 53.4323 79.7596 53.8578C79.0565 54.283 78.5688 54.9447 78.3862 55.721C78.0094 57.3233 79.0656 58.9201 80.7407 59.2806C80.97 59.33 81.2011 59.3543 81.4304 59.3543C82.013 59.3543 82.5851 59.1969 83.0894 58.8919C83.7923 58.4664 84.2799 57.8048 84.4625 57.0287C84.6451 56.2524 84.5008 55.4547 84.0561 54.7824C83.6114 54.11 82.9195 53.6436 82.108 53.4691ZM82.0601 56.5115C81.9811 56.847 81.6317 57.0584 81.2815 56.9829C80.9309 56.9075 80.7098 56.5731 80.7886 56.238C80.8567 55.9487 81.1262 55.7515 81.4244 55.7515C81.4716 55.7515 81.5195 55.7566 81.5676 55.7668C81.7374 55.8035 81.882 55.9009 81.9751 56.0415C82.0682 56.1823 82.0982 56.3492 82.0601 56.5115Z" fill="white"/>
<path d="M56.9343 59.4902C56.8375 59.4626 56.657 59.2676 56.6428 59.1167C56.5818 58.4746 56.6349 57.5346 56.7441 57.1751C57.1983 56.8237 57.4968 56.3038 57.575 55.7153C57.6543 55.1163 57.5039 54.4929 57.151 53.9595L55.7164 51.7907C55.3636 51.2575 54.839 50.8602 54.2391 50.6725C53.5649 50.461 52.8519 50.5376 52.2861 50.8803C52.1947 50.9263 51.9119 50.9056 51.7835 50.8041C51.2733 50.4006 50.624 49.7063 50.4383 49.3779C50.5692 48.2255 49.6787 47.11 48.3492 46.8238L45.7308 46.2603C45.0869 46.1213 44.4221 46.1957 43.8594 46.4688C43.2267 46.7755 42.7791 47.3119 42.6319 47.9378C42.603 48.0303 42.3991 48.2031 42.2414 48.2168C41.57 48.2752 40.5876 48.224 40.2118 48.1198C39.4518 47.2197 37.9993 47.0347 36.8493 47.7305L34.5812 49.1027C33.3518 49.8466 32.9256 51.3196 33.6294 52.3833C33.6773 52.4707 33.656 52.7413 33.5497 52.8642C33.1276 53.3523 32.4016 53.9733 32.0584 54.1507C31.4755 54.0902 30.8781 54.2565 30.3867 54.6207C29.8875 54.9903 29.5328 55.5331 29.388 56.1489L28.799 58.6527C28.6542 59.2685 28.7315 59.9041 29.0169 60.4426C29.3376 61.0476 29.8983 61.4758 30.5529 61.6166C30.6496 61.6442 30.8302 61.8392 30.8444 61.9901C30.9054 62.6322 30.8523 63.5722 30.7431 63.9316C30.2889 64.283 29.9904 64.803 29.9122 65.3915C29.8329 65.9904 29.9833 66.6139 30.3362 67.1473L31.7708 69.316C32.1236 69.8493 32.6482 70.2465 33.2481 70.4343C33.9223 70.6459 34.6353 70.5692 35.2011 70.2265C35.2923 70.1805 35.5752 70.2012 35.7037 70.3027C36.2139 70.7062 36.8632 71.4005 37.0489 71.7289C36.918 72.8813 37.8085 73.9968 39.138 74.283L41.7563 74.8465C41.9683 74.8922 42.1825 74.9147 42.3947 74.9147C42.8268 74.9147 43.2503 74.821 43.6278 74.638C44.2605 74.3313 44.7081 73.7949 44.8553 73.169C44.8842 73.0765 45.0881 72.9037 45.2458 72.89C45.9169 72.8311 46.8994 72.8826 47.2754 72.987C48.0355 73.8869 49.488 74.0722 50.6379 73.3763L52.906 72.0041C54.1354 71.2602 54.5615 69.7872 53.8578 68.7233C53.8099 68.6361 53.8312 68.3657 53.9377 68.2426C54.3594 67.7547 55.0855 67.1335 55.4288 66.9561C56.0122 67.0159 56.6087 66.8503 57.1005 66.4861C57.5997 66.1165 57.9544 65.5737 58.0992 64.9579L58.6882 62.4541C58.833 61.8383 58.7557 61.2027 58.4703 60.6642C58.1496 60.0591 57.5889 59.631 56.9343 59.4902ZM56.2858 61.9371L55.6968 64.4411C55.6782 64.5198 55.6439 64.5715 55.618 64.6006C54.194 64.3959 52.5259 66.1795 52.0399 66.7417C51.2863 67.6129 51.156 68.9472 51.719 69.8907C51.6989 69.9239 51.6594 69.9714 51.5893 70.0138L49.3213 71.386C49.2501 71.4291 49.1876 71.4425 49.1478 71.4455C48.3239 70.3829 46.0017 70.4595 45.0231 70.5444C43.8528 70.6461 42.7791 71.4995 42.4795 72.5495C42.4407 72.5592 42.3773 72.5661 42.2969 72.5488L39.6787 71.9853C39.5965 71.9676 39.5422 71.9349 39.512 71.9099C39.7231 70.5472 37.8612 68.953 37.2731 68.4877C36.3623 67.767 34.967 67.6428 33.9805 68.181C33.946 68.1618 33.8963 68.124 33.8518 68.0568L32.4172 65.8881C32.372 65.8199 32.3579 65.7601 32.3548 65.7222C33.4659 64.9341 33.3858 62.7135 33.297 61.7772C33.1907 60.658 32.2983 59.6309 31.2007 59.3443C31.1904 59.3074 31.1832 59.2473 31.2014 59.1697L31.7904 56.6657C31.8089 56.587 31.8433 56.5353 31.8692 56.5062C33.2927 56.7109 34.9612 54.9276 35.4475 54.3651C36.2008 53.4939 36.3311 52.1594 35.7682 51.2161C35.7882 51.1829 35.8278 51.1354 35.8978 51.093L38.1659 49.7208C38.2371 49.6777 38.2996 49.6643 38.3394 49.6613C39.1633 50.7239 41.4853 50.6475 42.4641 50.5624C43.6343 50.4607 44.7081 49.6073 45.0077 48.5573C45.0463 48.5475 45.1097 48.5406 45.1903 48.558L47.8084 49.1215C47.8907 49.1392 47.945 49.1719 47.9752 49.1969C47.7641 50.5596 49.626 52.1538 50.2141 52.6191C51.125 53.3398 52.5204 53.4641 53.5067 52.9258C53.5412 52.945 53.5909 52.9828 53.6353 53.05L55.07 55.2187C55.1152 55.2869 55.1293 55.3467 55.1324 55.3846C54.0213 56.1727 54.1014 58.3933 54.1902 59.3296C54.2965 60.4488 55.1889 61.4759 56.2865 61.7624C56.2968 61.7994 56.304 61.8595 56.2858 61.9371Z" fill="white"/>
<path d="M45.6743 52.3464C43.382 51.8525 41.0264 52.2432 39.0412 53.4443C34.9429 55.9242 33.718 61.1306 36.3107 65.0502C37.5667 66.9491 39.5208 68.2665 41.8128 68.7596C42.4604 68.8991 43.1126 68.968 43.7606 68.968C45.406 68.968 47.0215 68.5236 48.4459 67.6617C52.5442 65.1818 53.7691 59.9755 51.1764 56.0558C49.9204 54.157 47.9663 52.8396 45.6743 52.3464ZM49.9219 61.8825C49.5505 63.4608 48.5589 64.8064 47.1294 65.6712C45.6997 66.5362 44.004 66.8173 42.3534 66.4619C40.7032 66.1068 39.2962 65.1583 38.3919 63.7912C37.4875 62.424 37.194 60.8018 37.5652 59.2235C37.9366 57.6452 38.9282 56.2996 40.3577 55.4348C41.3835 54.8141 42.5465 54.4942 43.7314 54.4942C44.1977 54.4942 44.6675 54.5437 45.1337 54.6441C46.7839 54.9993 48.1909 55.9477 49.0952 57.3149C49.9996 58.682 50.2931 60.3042 49.9219 61.8825Z" fill="white"/>
<path d="M32.5491 43.6298C27.8226 46.4897 24.5433 50.9386 23.3156 56.1573C22.0878 61.3759 23.0585 66.7393 26.0485 71.2597C30.0291 77.2771 36.8311 80.5736 43.7773 80.5736C47.603 80.5736 51.4729 79.5733 54.9381 77.4767C59.6647 74.6168 62.944 70.1679 64.1717 64.9492C65.3995 59.7306 64.4288 54.3672 61.4387 49.8468C55.2659 40.5153 42.3057 37.7266 32.5491 43.6298ZM61.7692 64.4322C60.6859 69.0371 57.7923 72.9628 53.6217 75.4862C50.5634 77.3367 47.1497 78.2192 43.7734 78.2191C37.6446 78.2188 31.6417 75.3096 28.1298 70.0006C25.4911 66.0118 24.6347 61.2791 25.7181 56.6743C26.8014 52.0694 29.695 48.1437 33.8656 45.6203C36.9239 43.7698 40.3375 42.8874 43.7139 42.8874C49.8426 42.8874 55.8456 45.7969 59.3575 51.1059C61.9961 55.0947 62.8526 59.8274 61.7692 64.4322Z" fill="white"/>
<path d="M92.9513 30.7801C91.9862 29.3211 90.4791 28.3076 88.7076 27.9263C86.9366 27.5455 85.1208 27.8435 83.5951 28.7665L64.5866 40.2678C54.812 31.0627 39.5288 29.4547 27.8473 36.5223C21.1356 40.5832 16.4793 46.9008 14.7358 54.3111C12.9925 61.7216 14.3708 69.3376 18.6167 75.7565C22.8628 82.1756 29.4683 86.629 37.2167 88.2963C39.4058 88.7675 41.611 89.0003 43.8015 89.0001C49.3637 88.9999 54.8245 87.4982 59.6399 84.5847C71.3212 77.5168 76.3483 63.6201 71.8377 51.2293L90.846 39.7281C94.0059 37.8162 94.9504 33.8021 92.9513 30.7801ZM89.5295 37.7378L68.8256 50.2648L69.1908 51.1675C73.8712 62.7356 69.3006 75.9525 58.3234 82.5942C52.1675 86.3188 44.8636 87.5276 37.7573 85.9986C30.6507 84.4693 24.5922 80.3847 20.6979 74.4975C16.8035 68.6102 15.5394 61.6249 17.1384 54.8283C18.7373 48.0315 23.0081 42.2372 29.1638 38.5128C33.6448 35.8014 38.7031 34.4822 43.7283 34.4822C51.0139 34.4822 58.2296 37.2557 63.5113 42.5817L64.2077 43.2839L84.9116 30.7569C85.8812 30.1701 87.0376 29.9813 88.167 30.224C89.2968 30.4671 90.2566 31.1118 90.8702 32.0392C92.1432 33.9638 91.5419 36.5202 89.5295 37.7378Z" fill="white"/>
</svg>
